<svg width="140" height="140" viewBox="0 0 140 140" fill="none" xmlns="http://www.w3.org/2000/svg">
<circle cx="70" cy="70" r="70" fill="#012060"/>
<path d="M29.104 38.568H111.28V52.296H29.104V38.568ZM26.032 96.648H114.256V110.664H26.032V96.648ZM62.512 22.92H77.2V46.248H62.512V22.92ZM83.632 54.984L99.664 57.768C98.768 61.736 97.808 65.704 96.784 69.672C95.76 73.64 94.672 77.512 93.52 81.288C92.432 85 91.344 88.52 90.256 91.848C89.168 95.176 88.08 98.184 86.992 100.872L73.36 97.896C74.448 95.016 75.504 91.848 76.528 88.392C77.552 84.872 78.512 81.224 79.408 77.448C80.304 73.608 81.104 69.8 81.808 66.024C82.576 62.184 83.184 58.504 83.632 54.984ZM41.2 58.728L54.544 55.176C56.016 58.952 57.328 62.984 58.48 67.272C59.696 71.496 60.72 75.656 61.552 79.752C62.448 83.784 63.088 87.464 63.472 90.792L49.072 94.728C48.88 91.464 48.4 87.752 47.632 83.592C46.864 79.432 45.904 75.176 44.752 70.824C43.664 66.472 42.48 62.44 41.2 58.728Z" fill="white"/>
</svg>
